PathFileType	4	(X/Y/Z)	/Users/itak/Documents/Research/Walk-IL/dataset/trc/00160_00008.trc
DataRate	CameraRate	NumFrames	NumMarkers	Units	OrigDataRate	OrigDataStartFrame	OrigNumFrames
100.000000	100.000000	4	53	mm	100.000000	279	559
Frame#	Time	RPSI			LPSI			L3			STRN			T10			C7			CLAV			RBAK			LBAK			LSHO			LUPA			LAEL			LAOL			LWTS			LWPS			LFRA			LIFD			LHPS			LHTS			RSHO			RUPA			RAEL			RAOL			RWTS			RWPS			RFRA			RIFD			RHTS			RHPS			RBHD			LFHD			RFHD			LBHD			LHIP			RHIP			RASI			LASI			LKNE			LTHI			LANK			LTIP			LTOE			LMT1			LMT5			LHEE			RKNE			RTHI			RANK			RTIP			RTOE			RMT1			RMT5			RHEE			
		X1	Y1	Z1	X2	Y2	Z2	X3	Y3	Z3	X4	Y4	Z4	X5	Y5	Z5	X6	Y6	Z6	X7	Y7	Z7	X8	Y8	Z8	X9	Y9	Z9	X10	Y10	Z10	X11	Y11	Z11	X12	Y12	Z12	X13	Y13	Z13	X14	Y14	Z14	X15	Y15	Z15	X16	Y16	Z16	X17	Y17	Z17	X18	Y18	Z18	X19	Y19	Z19	X20	Y20	Z20	X21	Y21	Z21	X22	Y22	Z22	X23	Y23	Z23	X24	Y24	Z24	X25	Y25	Z25	X26	Y26	Z26	X27	Y27	Z27	X28	Y28	Z28	X29	Y29	Z29	X30	Y30	Z30	X31	Y31	Z31	X32	Y32	Z32	X33	Y33	Z33	X34	Y34	Z34	X35	Y35	Z35	X36	Y36	Z36	X37	Y37	Z37	X38	Y38	Z38	X39	Y39	Z39	X40	Y40	Z40	X41	Y41	Z41	X42	Y42	Z42	X43	Y43	Z43	X44	Y44	Z44	X45	Y45	Z45	X46	Y46	Z46	X47	Y47	Z47	X48	Y48	Z48	X49	Y49	Z49	X50	Y50	Z50	X51	Y51	Z51	X52	Y52	Z52	X53	Y53	Z53	

280	2.79	-933.0714111328125	1017.319274902344	22.46529388427734	-933.7445068359375	1021.980590820312	-101.1225051879883	-932.818603515625	1057.965087890625	-38.79318618774414	-665.1516723632812	1255.109985351562	-32.94512557983398	-963.1976318359375	1221.401489257812	-50.2626838684082	-879.2955932617188	1486.600463867188	-55.36474609375	-686.3959350585938	1370.5458984375	-40.25895309448242	-964.7205810546875	1313.153198242188	45.77816772460938	-881.6746215820312	1464.473266601562	-157.3843536376953	-800.7001342773438	1446.742797851562	-231.2576293945312	-833.6864624023438	1315.3720703125	-305.9801635742188	-814.92578125	1099.9921875	-331.81884765625	-861.615478515625	1080.389892578125	-258.708251953125	-687.8040771484375	876.61865234375	-308.0195007324219	-767.096923828125	850.7650756835938	-348.5126953125	-793.5957641601562	991.2059326171875	-349.1626586914062	-655.12841796875	695.822265625	-295.9403991699219	-738.1890258789062	783.9561767578125	-349.3395690917969	-668.543212890625	802.749755859375	-334.2077026367188	-831.3511962890625	1455.95751953125	130.0385589599609	-861.8507690429688	1388.811401367188	194.5375671386719	-910.1965942382812	1103.388549804688	238.9493255615234	-898.5838623046875	1095.331665039062	140.2255554199219	-781.915771484375	870.8609008789062	246.6186981201172	-864.7997436523438	855.8984375	273.1558227539062	-893.2088012695312	1029.781982421875	259.8612976074219	-769.9977416992188	682.671630859375	223.82666015625	-761.6613159179688	775.974365234375	260.3584594726562	-840.8909912109375	771.8674926757812	275.76708984375	-814.489013671875	1638.860473632812	32.23704528808594	-647.455078125	1685.080810546875	-98.64270782470703	-644.641357421875	1675.035400390625	30.58507919311523	-824.3772583007812	1656.404663085938	-104.8596878051758	-838.8176879882812	962.8660888671875	-222.3791351318359	-775.3743896484375	976.60107421875	143.8307495117188	-698.1757202148438	1002.546508789062	85.02602386474609	-708.0221557617188	995.301513671875	-174.4107055664062	-912.42138671875	478.9473876953125	-167.5191192626953	-872.86767578125	617.6205444335938	-199.0306396484375	-1196.286499023438	91.1844482421875	-137.8286437988281	-1047.512084960938	286.857666015625	-164.3356781005859	-995.8912353515625	39.69020843505859	-105.8627777099609	-1039.198120117188	43.79838180541992	-59.38821792602539	-1099.683715820312	40.19390869140625	-170.481201171875	-1241.910400390625	122.7610778808594	-71.01013946533203	-590.7685546875	516.1014404296875	98.90019989013672	-661.8121948242188	771.7678833007812	144.7598114013672	-522.4984741210938	31.16420555114746	74.61609649658203	-542.6303100585938	405.8191833496094	79.57515716552734	-310.9594116210938	88.41185760498047	66.11003875732422	-356.2937927246094	72.57106018066406	13.63193702697754	-414.4484558105469	40.90400695800781	116.6582107543945	-568.3911743164062	31.76746368408203	1.724768042564392	
281	2.8	-920.7610473632812	1019.761413574219	23.62721252441406	-920.802978515625	1023.917663574219	-100.0291442871094	-920.3439331054688	1060.093505859375	-37.71605682373047	-653.3037109375	1257.476196289062	-31.13563919067383	-951.2700805664062	1222.994262695312	-48.8743896484375	-868.0574951171875	1488.459594726562	-53.47003936767578	-674.9641723632812	1372.860595703125	-38.40206909179688	-952.9518432617188	1314.731811523438	47.47850036621094	-870.3170166015625	1466.42041015625	-155.4899291992188	-789.353271484375	1448.870727539062	-229.4783325195312	-823.021484375	1317.315063476562	-303.8139343261719	-806.8805541992188	1101.673217773438	-328.1421813964844	-853.0634155273438	1083.183837890625	-254.2333068847656	-685.5648803710938	874.9917602539062	-305.6300659179688	-765.99462890625	851.5218505859375	-344.990478515625	-788.4596557617188	992.569091796875	-345.4962768554688	-658.2084350585938	693.1897583007812	-293.6318664550781	-739.2215576171875	783.8721923828125	-346.0951538085938	-668.7885131835938	800.4802856445312	-331.8739318847656	-820.1018676757812	1457.855102539062	131.9237365722656	-850.5432739257812	1390.650390625	196.3697204589844	-898.9744873046875	1105.3203125	240.102294921875	-887.0988159179688	1097.360961914062	141.3819427490234	-772.6404418945312	871.7424926757812	247.7826538085938	-855.5438842773438	857.6341552734375	274.4353332519531	-882.4562377929688	1031.711181640625	260.9983520507812	-762.5234375	683.3936157226562	224.9724884033203	-753.256103515625	776.630615234375	261.4866027832031	-832.4788208007812	773.3715209960938	277.013427734375	-803.2510375976562	1640.947021484375	34.46224212646484	-636.3644409179688	1687.306396484375	-96.520751953125	-633.4445190429688	1677.22216796875	32.66320037841797	-813.2661743164062	1658.532104492188	-102.6267547607422	-825.9672241210938	963.97412109375	-220.9964294433594	-763.0557861328125	979.8784790039062	145.0497589111328	-685.7743530273438	1005.473876953125	86.37630462646484	-695.5440063476562	996.8530883789062	-173.0435943603516	-899.0128173828125	479.54296875	-168.0465850830078	-859.510009765625	618.5087890625	-198.3807067871094	-1192.046752929688	97.433349609375	-137.7018432617188	-1038.441772460938	290.0052185058594	-164.7232971191406	-995.872802734375	39.65973663330078	-105.8019638061523	-1037.596069335938	43.97623825073242	-59.23675918579102	-1097.97119140625	41.8382453918457	-170.14306640625	-1235.784301757812	131.32421875	-70.94513702392578	-580.6017456054688	517.6868286132812	99.82872772216797	-649.7610473632812	774.4950561523438	146.2016143798828	-521.5604248046875	31.31025314331055	74.89577484130859	-534.1057739257812	406.2032775878906	80.36677551269531	-308.4676513671875	83.43762969970703	65.40667724609375	-354.3821411132812	68.83421325683594	13.13660144805908	-413.0670166015625	38.69677352905273	116.5630111694336	-567.6132202148438	33.05616760253906	2.095805644989014	
282	2.81	-908.48193359375	1022.326232910156	24.68832588195801	-907.858154296875	1026.024658203125	-99.02370452880859	-907.8731689453125	1062.367553710938	-36.70095443725586	-641.509521484375	1260.11767578125	-29.28111267089844	-939.32373046875	1224.7607421875	-47.54661178588867	-856.9087524414062	1490.482299804688	-51.61630630493164	-663.587890625	1375.455078125	-36.53630447387695	-941.2025756835938	1316.471313476562	49.12428665161133	-859.0111694335938	1468.56396484375	-153.6243743896484	-778.024169921875	1451.27001953125	-227.6874694824219	-812.29052734375	1319.5869140625	-301.7296752929688	-798.7098999023438	1103.737670898438	-324.41455078125	-844.376708984375	1086.31884765625	-249.8118591308594	-683.4489135742188	873.8096313476562	-303.12890625	-764.94091796875	852.831298828125	-341.3962707519531	-783.2589721679688	994.3876953125	-341.7758178710938	-661.65576171875	691.123779296875	-291.0478820800781	-740.3901977539062	784.3702392578125	-342.7102355957031	-669.2567138671875	798.6805419921875	-329.3421936035156	-808.9608154296875	1460.012451171875	133.7510223388672	-839.3106079101562	1392.781982421875	198.1733856201172	-887.6600952148438	1107.526611328125	241.3317565917969	-875.5729370117188	1099.681518554688	142.6154632568359	-763.0840454101562	873.0022583007812	248.9517517089844	-845.9723510742188	859.6929931640625	275.8080139160156	-871.5308227539062	1033.929931640625	262.2243957519531	-754.7577514648438	684.4838256835938	226.0372772216797	-744.5411987304688	777.64306640625	262.555908203125	-823.7095947265625	775.200927734375	278.3153991699219	-792.0167846679688	1643.244873046875	36.66698455810547	-625.2632446289062	1689.6708984375	-94.40708923339844	-622.2521362304688	1679.551879882812	34.74109268188477	-802.1494750976562	1660.87939453125	-100.4173355102539	-812.9495239257812	965.2993774414062	-219.6249694824219	-750.899658203125	983.2315673828125	146.3581237792969	-673.4978637695312	1008.664855957031	87.89394378662109	-682.9473876953125	998.6635131835938	-171.4949340820312	-884.8021850585938	480.0576477050781	-168.8477020263672	-845.5908813476562	619.4329223632812	-197.8307952880859	-1187.108032226562	104.0495910644531	-137.2164001464844	-1028.671875	293.2468566894531	-165.1309356689453	-995.8419799804688	39.61669921875	-105.7587966918945	-1035.719116210938	44.1497802734375	-58.99035263061523	-1096.099731445312	43.72580718994141	-169.6989593505859	-1228.598388671875	140.2588806152344	-70.42366027832031	-570.9122924804688	519.1482543945312	100.9386749267578	-637.9584350585938	777.1694946289062	147.7662811279297	-520.7017822265625	31.45365142822266	75.34597015380859	-526.0737915039062	406.5596008300781	81.33937835693359	-306.4371643066406	79.12239074707031	64.47008514404297	-352.9751892089844	65.76992034912109	12.47451210021973	-411.8247680664062	36.88502502441406	116.4371643066406	-567.0341186523438	34.15176391601562	2.638393878936768	
283	2.82	-896.2488403320312	1024.94091796875	25.71138000488281	-894.9713134765625	1028.236328125	-98.051513671875	-895.4471435546875	1064.715698242188	-35.69780349731445	-629.779296875	1262.985107421875	-27.40169525146484	-927.38525390625	1226.6455078125	-46.25847244262695	-845.8639526367188	1492.615478515625	-49.80564117431641	-652.2799072265625	1378.271484375	-34.67287063598633	-929.5006103515625	1318.316284179688	50.71217346191406	-847.7816162109375	1470.84814453125	-151.7865295410156	-766.7463989257812	1453.885864257812	-225.8929901123047	-801.5349731445312	1322.140014648438	-299.7476196289062	-790.4449462890625	1106.132934570312	-320.6807556152344	-835.5768432617188	1089.739868164062	-245.5002136230469	-681.3726806640625	873.0722045898438	-300.5196228027344	-763.8378295898438	854.6627807617188	-337.775634765625	-777.9536743164062	996.62255859375	-338.0403442382812	-665.37646484375	689.6343994140625	-288.1671752929688	-741.5765380859375	785.434326171875	-339.2154541015625	-669.8546142578125	797.3468017578125	-326.5985107421875	-797.9475708007812	1462.363403320312	135.5142669677734	-828.1810913085938	1395.139526367188	199.9331665039062	-876.2868041992188	1109.9423828125	242.6499328613281	-864.0477294921875	1102.218017578125	143.9360809326172	-753.2081909179688	874.6024780273438	250.1353912353516	-836.0574951171875	862.0137329101562	277.2967529296875	-860.4561157226562	1036.371337890625	263.5545959472656	-746.6365356445312	685.9049072265625	227.0399780273438	-735.4684448242188	778.9751586914062	263.5724792480469	-814.5377807617188	777.3015747070312	279.6934204101562	-780.8207397460938	1645.700805664062	38.83983993530273	-614.1881713867188	1692.12841796875	-92.31809234619141	-611.097412109375	1681.975952148438	36.80583953857422	-791.0667114257812	1663.389770507812	-98.24213409423828	-799.8475341796875	966.7916259765625	-218.2332153320312	-738.8949584960938	986.568115234375	147.7807159423828	-661.3513793945312	1011.995483398438	89.57588195800781	-670.27197265625	1000.711730957031	-169.7824401855469	-869.818115234375	480.4437255859375	-169.9259033203125	-831.1643676757812	620.3461303710938	-197.4236755371094	-1181.424560546875	111.0395965576172	-136.3815307617188	-1018.193786621094	296.548583984375	-165.5649108886719	-995.7432250976562	39.53573608398438	-105.7435989379883	-1033.551391601562	44.35831832885742	-58.68696212768555	-1094.0458984375	45.91534805297852	-169.1405944824219	-1220.335083007812	149.5410461425781	-69.45675659179688	-561.751220703125	520.4383544921875	102.1656799316406	-626.3905029296875	779.6839599609375	149.4322052001953	-519.9534301757812	31.57297325134277	75.88620758056641	-518.5411987304688	406.8595581054688	82.37991333007812	-304.8277893066406	75.45562744140625	63.36139678955078	-351.9855651855469	63.32009506225586	11.68012523651123	-410.7442016601562	35.49555969238281	116.2891540527344	-566.6376953125	35.04494857788086	3.277799844741821	
